<svg width="52" height="52" fill="none" xmlns="http://www.w3.org/2000/svg"><g clip-path="url(#a)" fill="#000"><path d="M26.018 51.066h-.002C12.197 51.066.953 39.82.951 26 .951 12.18 12.194.936 26.015.936S51.08 12.18 51.08 26c0 13.822-11.242 25.066-25.061 25.066zm-.003-48.13C13.297 2.936 2.951 13.283 2.951 26c.001 12.718 10.348 23.066 23.066 23.066h.002c12.715 0 23.06-10.347 23.06-23.066 0-12.717-10.346-23.064-23.064-23.064z"/><path d="M26.018 43.75h-.002c-9.786 0-17.75-7.963-17.75-17.75 0-9.787 7.962-17.75 17.75-17.75 9.787 0 17.75 7.963 17.75 17.75 0 9.787-7.962 17.75-17.748 17.75zm-.003-33.5c-8.684 0-15.75 7.066-15.75 15.75.002 8.685 7.067 15.75 15.752 15.75h.001c8.683 0 15.748-7.066 15.748-15.75 0-8.684-7.066-15.75-15.75-15.75z"/><path d="M26.015 29.117a3.1 3.1 0 0 1-2.203-.91 3.123 3.123 0 0 1 0-4.411 3.096 3.096 0 0 1 2.203-.913c.833 0 1.616.324 2.204.914a3.123 3.123 0 0 1 0 4.409 3.096 3.096 0 0 1-2.204.911zm0-4.234a1.12 1.12 0 0 0-.789 1.91c.419.418 1.157.42 1.579-.002a1.12 1.12 0 0 0 0-1.582 1.11 1.11 0 0 0-.79-.326z"/><path d="M27.512 25.503a1 1 0 0 1-.707-1.707l6.902-6.901a1 1 0 1 1 1.414 1.414l-6.902 6.901a.995.995 0 0 1-.707.293zM24.508 25.493a.996.996 0 0 1-.707-.293l-5.125-5.125a1 1 0 0 1 1.414-1.415l5.125 5.126a1 1 0 0 1-.707 1.707z"/></g><defs><clipPath id="a"><path fill="#fff" d="M0 0h52v52H0z"/></clipPath></defs></svg>