<svg width="48" height="48" fill="none" xmlns="http://www.w3.org/2000/svg"><g clip-path="url(#a)" fill="#000"><path d="M41.889 46.31 35.56 32.923a1.185 1.185 0 0 0-.608-.584l-3.148-1.401 5.455-9.143a14.77 14.77 0 0 0 1.672-6.865c0-4.027-1.58-7.803-4.448-10.631A14.825 14.825 0 0 0 23.79 0c-3.914.055-7.6 1.627-10.377 4.427-2.778 2.8-4.32 6.498-4.343 10.413a14.973 14.973 0 0 0 1.67 6.955l5.456 9.143-3.167 1.409c-.259.115-.468.32-.589.575L6.111 46.31a1.184 1.184 0 0 0 1.553 1.589l7.927-3.53 7.927 3.53c.307.136.657.136.964 0l7.927-3.53 7.928 3.53a1.183 1.183 0 0 0 1.552-1.589zM12.794 20.615a12.423 12.423 0 0 1-1.356-5.761c.04-6.79 5.595-12.391 12.384-12.485a12.483 12.483 0 0 1 8.999 3.616 12.472 12.472 0 0 1 3.742 8.945 12.42 12.42 0 0 1-1.357 5.685L25.017 37.693A1.166 1.166 0 0 1 24 38.27c-.202 0-.706-.056-1.017-.578L12.794 20.617zM32.891 41.99a1.185 1.185 0 0 0-.964 0L24 45.52l-7.927-3.53a1.185 1.185 0 0 0-.964 0l-5.492 2.445 4.776-10.102 3.024-1.346 3.531 5.92A3.524 3.524 0 0 0 24 40.638a3.524 3.524 0 0 0 3.051-1.733l3.531-5.919 3.025 1.347 4.775 10.1-5.491-2.444z"/><path d="M24 9.526a5.412 5.412 0 0 0-5.405 5.405A5.412 5.412 0 0 0 24 20.337a5.411 5.411 0 0 0 5.406-5.406A5.412 5.412 0 0 0 24 9.526zm0 8.442a3.04 3.04 0 0 1-3.037-3.037A3.04 3.04 0 0 1 24 11.894a3.04 3.04 0 0 1 3.037 3.037A3.04 3.04 0 0 1 24 17.968z"/></g><defs><clipPath id="a"><path fill="#fff" d="M0 0h48v48H0z"/></clipPath></defs></svg>