<svg width="48" height="49" fill="none" xmlns="http://www.w3.org/2000/svg"><g clip-path="url(#a)" fill="#000"><path d="M23.99 27.335a.94.94 0 1 0 0-1.88.94.94 0 0 0 0 1.88z"/><path d="M23.454 47.825a.938.938 0 0 0 1.092 0c9.57-6.836 19.18-9.836 19.18-23.902V6.509a.94.94 0 0 0-.861-.937l-2.442-.204C34.826 4.902 29.32 3.062 24.498.048a.94.94 0 0 0-.996 0c-4.821 3.014-10.328 4.854-15.926 5.32l-2.44.204a.94.94 0 0 0-.862.937v17.414c0 14.463 10.959 18.03 19.18 23.902zM6.153 7.373l1.58-.132C13.435 6.765 19.046 4.938 24 1.948c4.953 2.99 10.565 4.817 16.267 5.293l1.58.132v16.55c0 12.683-8.451 15.405-17.849 21.988-8.247-5.725-17.845-8.974-17.845-21.988V7.373z"/><path d="M23.453 40.997a.932.932 0 0 0 1.094-.024c8.504-5.886 13.543-7.823 13.543-17.049v-12.32a.94.94 0 0 0-.8-.93 41.388 41.388 0 0 1-12.86-4.158.956.956 0 0 0-.902.021 41.362 41.362 0 0 1-12.818 4.138.94.94 0 0 0-.8.929v12.32c0 9.313 5.519 11.599 13.543 17.073zM11.789 12.405a43.21 43.21 0 0 0 11.262-3.54v13.773a.94.94 0 1 0 1.879 0V8.857a43.246 43.246 0 0 0 11.281 3.548v11.519c0 7.636-3.576 9.3-11.281 14.511v-8.282a.94.94 0 1 0-1.879 0v8.31c-7.199-4.793-11.262-6.84-11.262-14.539v-11.52z"/></g><defs><clipPath id="a"><path fill="#fff" d="M0 0h48v48.094H0z"/></clipPath></defs></svg>